<svg id="Capa_1" enable-background="new 0 0 512 512" height="512" viewBox="0 0 512 512" width="512" xmlns="http://www.w3.org/2000/svg"><path d="m331 150v120h-150v-120h60l15 30 15-30z" fill="#5b5555"/><path d="m331 150v120h-75v-90l15-30z" fill="#463f3f"/><path d="m271 150v135c0 8.399-6.599 15-15 15s-15-6.601-15-15v-135z" fill="#766e6e"/><path d="m271 150v135c0 8.399-6.599 15-15 15v-150z" fill="#5b5555"/><path d="m91 30v90l30 30h60l30-30v-90z" fill="#766e6e"/><path d="m226 60h-150c-8.291 0-15-6.709-15-15v-30c0-8.291 6.709-15 15-15h150c8.291 0 15 6.709 15 15v30c0 8.291-6.709 15-15 15z" fill="#fdbf00"/><path d="m91 120-29.224 100.254c-.512 1.538-.776 3.135-.776 4.746v150h150v-165-90z" fill="#fdbf00"/><path d="m226 512h-180c-8.291 0-15-6.709-15-15v-122c0-8.291 6.709-15 15-15h180c8.291 0 15 6.709 15 15v122c0 8.291-6.709 15-15 15z" fill="#766e6e"/><path d="m421 30v90l-30 30h-60l-30-30v-90z" fill="#5b5555"/><path d="m271 45v-30c0-8.291 6.709-15 15-15h150c8.291 0 15 6.709 15 15v30c0 8.291-6.709 15-15 15h-150c-8.291 0-15-6.709-15-15z" fill="#ff9100"/><path d="m421 120 29.224 100.254c.513 1.538.776 3.135.776 4.746v150h-150v-165-90z" fill="#ff9100"/><path d="m271 497v-122c0-8.291 6.709-15 15-15h180c8.291 0 15 6.709 15 15v122c0 8.291-6.709 15-15 15h-180c-8.291 0-15-6.709-15-15z" fill="#5b5555"/></svg>