<svg id="Capa_1" enable-background="new 0 0 512 512" height="512" viewBox="0 0 512 512" width="512" xmlns="http://www.w3.org/2000/svg"><path d="m90 226c0 24.814-20.186 45-45 45-8.291 0-15 6.709-15 15 0 41.353 33.647 75 75 75l60-30-15-105z" fill="#5b5555"/><path d="m347 271c-24.814 0-45-20.186-45-45l-60 30-46 75 91 30c41.353 0 75-33.647 75-75 0-8.291-6.709-15-15-15z" fill="#463f3f"/><path d="m332 332.514-30 28.486v121l30 30h45c8.401 0 15-6.599 15-15v-91c0-36.262-25.781-66.53-60-73.486z" fill="#ffbfab"/><path d="m0 406v91c0 8.401 6.599 15 15 15h45l30-30v-121l-30-28.486c-34.219 6.956-60 37.224-60 73.486z" fill="#ffd8cc"/><path d="m317 331h-45l-30 45h-46-46l-30-45h-45c-5.138 0-10.151.529-15 1.514v179.486h136 136v-179.486c-4.849-.985-9.862-1.514-15-1.514z" fill="#ff9100"/><path d="m332 332.514c-4.849-.985-9.862-1.514-15-1.514h-45l-30 45h-46v136h136z" fill="#ff641a"/><path d="m272 331v75c0 5.7-3.3 10.8-8.401 13.5l-61 30c-2.098.899-4.199 1.5-6.599 1.5s-4.501-.601-6.599-1.5l-61-30c-5.101-2.7-8.401-7.8-8.401-13.5v-75z" fill="#e6ffff"/><path d="m196 331h76v75c0 5.7-3.3 10.8-8.401 13.5l-61 30c-2.098.899-4.199 1.5-6.599 1.5z" fill="#d9f2ff"/><path d="m302 15v121h-212v-121c0-8.401 6.599-15 15-15h182c8.401 0 15 6.599 15 15z" fill="#ff641a"/><path d="m302 15v121h-106v-136h91c8.401 0 15 6.599 15 15z" fill="#f03800"/><path d="m302 166v90c0 36.301-25.8 66.599-60 73.5v67.2l-46 22.5-46-22.5v-67.2c-34.2-6.901-60-37.2-60-73.5v-90z" fill="#ffd8cc"/><path d="m302 166v90c0 36.301-25.8 66.599-60 73.5v67.2l-46 22.5v-253.2z" fill="#ffbfab"/><path d="m242 226c0 24.901-21.099 45-46 45s-46-20.099-46-45c0-8.401 6.599-15 15-15s16 6.599 16 15 6.599 15 15 15 15-6.599 15-15 7.599-15 16-15 15 6.599 15 15z" fill="#ffa78f"/><path d="m196 271v-30c8.401 0 15-6.599 15-15s7.599-15 16-15 15 6.599 15 15c0 24.901-21.099 45-46 45z" fill="#f89580"/><path d="m329.9 173.8c-2.999 4.499-7.8 7.2-12.9 7.2h-242c-5.099 0-9.901-2.701-12.9-7.2-2.701-4.2-2.701-9.901-.601-14.399l28.501-68.401h212l28.5 68.401c2.101 4.499 2.101 10.199-.6 14.399z" fill="#ff9100"/><path d="m329.9 173.8c-2.999 4.499-7.8 7.2-12.9 7.2h-121v-90h106l28.5 68.401c2.101 4.499 2.101 10.199-.6 14.399z" fill="#ff641a"/><path d="m467 11.7c-7.8-7.199-18.3-11.7-30-11.7-24.901 0-45 20.099-45 45v121c0 8.401 6.599 15 15 15s15-6.599 15-15v-121c0-8.401 6.599-15 15-15s15 6.599 15 15v209.57c8.106 8.02 13 19.208 13 31.43s-4.894 23.41-13 31.43v58.57c0 8.401 6.599 15 15 15s15-6.599 15-15v-331c0-13.2-5.7-25.201-15-33.3z" fill="#766e6e"/><path d="m482 45v331c0 8.401-6.599 15-15 15v-379.3c9.3 8.099 15 20.1 15 33.3z" fill="#5b5555"/><path d="m497 361h-60c-8.401 0-15 6.599-15 15v121c0 8.401 6.599 15 15 15h60c8.401 0 15-6.599 15-15v-121c0-8.401-6.599-15-15-15z" fill="#ff9100"/><path d="m512 376v121c0 8.401-6.599 15-15 15h-30v-151h30c8.401 0 15 6.599 15 15z" fill="#ff641a"/><path d="m467 252.7c-7.8-7.2-18.3-11.7-30-11.7-24.901 0-45 20.099-45 45s20.099 45 45 45c11.7 0 22.2-4.501 30-11.7 9.3-8.099 15-20.099 15-33.3s-5.7-25.201-15-33.3zm-30 48.3c-8.401 0-15-6.599-15-15s6.599-15 15-15 15 6.599 15 15-6.599 15-15 15z" fill="#d9f2ff"/></svg>