<svg id="Capa_1" enable-background="new 0 0 512 512" height="512" viewBox="0 0 512 512" width="512" xmlns="http://www.w3.org/2000/svg"><path d="m391 256c0 24-4.501 76.5-30 135l-30 30h-150l-30-30c-25.499-58.2-30-108.3-30-135 0-78.3 31.199-126.301 32.401-128.401h205.199c1.201 2.1 32.4 50.101 32.4 128.401z" fill="#fff261"/><path d="m391 256c0 24-4.501 76.5-30 135l-30 30h-75v-293.401h102.599c1.202 2.1 32.401 50.101 32.401 128.401z" fill="#fdbf00"/><path d="m65.395 206.605-30-30c-5.859-5.859-5.859-15.352 0-21.211s15.352-5.859 21.211 0l30 30c5.859 5.859 5.859 15.352 0 21.211-5.86 5.86-15.352 5.86-21.211 0z" fill="#fff261"/><path d="m466 271h-30c-8.291 0-15-6.709-15-15s6.709-15 15-15h30c8.291 0 15 6.709 15 15s-6.709 15-15 15z" fill="#ffda2d"/><path d="m35.395 356.605c-5.859-5.859-5.859-15.352 0-21.211l30-30c5.859-5.859 15.352-5.859 21.211 0s5.859 15.352 0 21.211l-30 30c-5.86 5.86-15.352 5.86-21.211 0z" fill="#fff261"/><path d="m425.395 206.605c-5.859-5.859-5.859-15.352 0-21.211l30-30c5.859-5.859 15.352-5.859 21.211 0s5.859 15.352 0 21.211l-30 30c-5.86 5.86-15.352 5.86-21.211 0z" fill="#ffda2d"/><path d="m76 271h-30c-8.291 0-15-6.709-15-15s6.709-15 15-15h30c8.291 0 15 6.709 15 15s-6.709 15-15 15z" fill="#fff261"/><path d="m455.395 356.605-30-30c-5.859-5.859-5.859-15.352 0-21.211s15.352-5.859 21.211 0l30 30c5.859 5.859 5.859 15.352 0 21.211-5.86 5.86-15.352 5.86-21.211 0z" fill="#ffda2d"/><path d="m241 301h30v120h-30z" fill="#ff9100"/><path d="m256 301h15v120h-15z" fill="#ff641a"/><path d="m295 263.5-26.1-45c-2.699-4.501-7.8-6.901-12.9-6.901s-10.201 2.401-12.9 6.901l-26.1 45c-3.9 6.899-6 14.7-6 22.5 0 24.899 20.099 45 45 45s45-20.101 45-45c0-7.8-2.1-15.601-6-22.5z" fill="#fdbf00"/><path d="m256 331v-119.401c5.099 0 10.201 2.401 12.9 6.901l26.1 45c3.9 6.899 6 14.7 6 22.5 0 24.899-20.099 45-45 45z" fill="#ff9100"/><path d="m151 391h210v91h-210z" fill="#5b5555"/><path d="m256 391h105v91h-105z" fill="#463f3f"/><path d="m391 482v15c0 8.399-6.599 15-15 15h-240c-8.401 0-15-6.601-15-15v-15c0-16.5 13.5-30 30-30h210c16.5 0 30 13.5 30 30z" fill="#766e6e"/><path d="m391 482v15c0 8.399-6.599 15-15 15h-120v-60h105c16.5 0 30 13.5 30 30z" fill="#5b5555"/><path d="m391 121h-30v-46c0-8.401-6.599-15-15-15h-16.505c-6.956-34.22-37.232-60-73.495-60s-66.539 25.78-73.495 60h-16.505c-8.401 0-15 6.599-15 15v46h-30c-8.401 0-15 6.599-15 15 0 8.399 6.599 15 15 15h270c8.401 0 15-6.601 15-15 0-8.401-6.599-15-15-15zm-135-91c19.636 0 36.278 12.504 42.441 30h-84.881c6.162-17.496 22.804-30 42.44-30z" fill="#5b5555"/><path d="m391 121h-30v-46c0-8.401-6.599-15-15-15h-16.505c-6.956-34.22-37.232-60-73.495-60v30c19.636 0 36.278 12.504 42.441 30h-42.441v61 15 15h135c8.401 0 15-6.601 15-15 0-8.401-6.599-15-15-15z" fill="#463f3f"/></svg>