<svg id="Capa_1" enable-background="new 0 0 512 512" height="512" viewBox="0 0 512 512" width="512" xmlns="http://www.w3.org/2000/svg"><path d="m481 256c0 124.2-100.8 225-225 225s-225-100.8-225-225 100.8-225 225-225 225 100.8 225 225z" fill="#ccfffa"/><path d="m481 256c0 124.2-100.8 225-225 225v-450c124.2 0 225 100.8 225 225z" fill="#b3ffff"/><path d="m451 256c0 107.399-87.599 195-195 195s-195-87.601-195-195c0-28.2 6-54.901 16.8-78.9l118.2 18.9-27.9-113.701c26.4-13.499 56.1-21.299 87.9-21.299 107.401 0 195 87.599 195 195z" fill="#8cf2f2"/><path d="m451 256c0 107.399-87.599 195-195 195v-390c107.401 0 195 87.599 195 195z" fill="#57d9d4"/><path d="m167.961 82.24c-39.888 20.295-71.876 53.815-90.128 94.856l178.167 78.904z" fill="#fdbf00"/><path d="m406 151c-24.814 0-45-20.186-45-45s20.186-45 45-45 45 20.186 45 45-20.186 45-45 45z" fill="#ff9100"/><path d="m106 451c-24.814 0-45-20.186-45-45s20.186-45 45-45 45 20.186 45 45-20.186 45-45 45z" fill="#fdbf00"/><path d="m497 241h-226v-226c0-8.401-6.599-15-15-15s-15 6.599-15 15v177.459l-65.493-130.976c-3.721-7.397-12.715-10.415-20.127-6.709s-10.415 12.715-6.709 20.127l75.22 150.41-153.692-68.305c-7.515-3.369-16.421.044-19.805 7.617-3.354 7.573.044 16.436 7.617 19.805l69.287 30.793c-2.685 8.395-4.512 16.988-5.477 25.779h-106.821c-8.401 0-15 6.599-15 15 0 8.399 6.599 15 15 15h106.839c6.946 62.447 56.714 112.215 119.161 119.161v106.839c0 8.399 6.599 15 15 15s15-6.601 15-15v-106.852c19.597-2.196 38.505-8.656 55.499-18.949 7.202-4.499 9.3-13.499 4.801-20.7-4.2-7.2-13.5-9.3-20.4-4.799-12.226 7.336-25.771 12.193-39.901 14.222v-88.922h226c8.401 0 15-6.601 15-15 .001-8.401-6.598-15-14.999-15zm-342.081-13.504 30.385 13.504h-33.236c.651-4.558 1.601-9.066 2.851-13.504zm-2.843 43.504h88.924v88.924c-45.918-6.596-82.328-43.006-88.924-88.924z" fill="#ccfffa"/><path d="m497 241h-106.839c-6.946-62.449-56.713-112.215-119.161-119.161v-106.839c0-8.401-6.599-15-15-15v512c8.401 0 15-6.601 15-15v-106.852c19.597-2.196 38.505-8.656 55.499-18.949 7.202-4.499 9.3-13.499 4.801-20.7-4.2-7.2-13.5-9.3-20.4-4.799-12.226 7.336-25.771 12.193-39.901 14.222v-88.922h88.921c-2.028 14.128-6.886 27.673-14.221 39.899-4.499 6.901-2.1 16.201 4.801 20.402 2.399 1.5 5.099 2.399 7.798 2.399 5.101 0 9.901-2.699 12.902-7.2 10.293-16.995 16.751-35.903 18.947-55.499h106.853c8.401 0 15-6.601 15-15 0-8.402-6.599-15.001-15-15.001zm-226-88.924c45.918 6.596 82.328 43.006 88.924 88.924h-88.924z" fill="#b3ffff"/><path d="m346 391c-24.814 0-45-20.186-45-45s20.186-45 45-45 45 20.186 45 45-20.186 45-45 45z" fill="#ff9100"/></svg>